<mxfile host="app.diagrams.net" modified="2024-04-03T16:50:07.457Z" agent="Mozilla/5.0 (Windows NT 10.0; Win64; x64) AppleWebKit/537.36 (KHTML, like Gecko) Chrome/123.0.0.0 Safari/537.36" etag="P90F_7J8n_978S4hA4LV" version="24.2.0" type="device">
  <diagram name="PÃ¡gina-1" id="pyQWoUD2eJ1W6mQN2jcl">
    <mxGraphModel dx="1120" dy="1698" grid="1" gridSize="10" guides="1" tooltips="1" connect="1" arrows="1" fold="1" page="1" pageScale="1" pageWidth="827" pageHeight="1169" math="0" shadow="0">
      <root>
        <mxCell id="0" />
        <mxCell id="1" parent="0" />
        <mxCell id="C83mviFjffxOCCcXQTnV-33" style="edgeStyle=orthogonalEdgeStyle;rounded=0;orthogonalLoop=1;jettySize=auto;html=1;entryX=0;entryY=0.5;entryDx=0;entryDy=0;" edge="1" parent="1" source="C83mviFjffxOCCcXQTnV-3" target="C83mviFjffxOCCcXQTnV-11">
          <mxGeometry relative="1" as="geometry" />
        </mxCell>
        <mxCell id="C83mviFjffxOCCcXQTnV-3" value="Aluno" style="whiteSpace=wrap;html=1;align=center;" vertex="1" parent="1">
          <mxGeometry x="150" y="-270" width="100" height="40" as="geometry" />
        </mxCell>
        <mxCell id="C83mviFjffxOCCcXQTnV-6" style="edgeStyle=orthogonalEdgeStyle;rounded=0;orthogonalLoop=1;jettySize=auto;html=1;" edge="1" parent="1" source="C83mviFjffxOCCcXQTnV-5" target="C83mviFjffxOCCcXQTnV-3">
          <mxGeometry relative="1" as="geometry" />
        </mxCell>
        <mxCell id="C83mviFjffxOCCcXQTnV-5" value="matricula" style="ellipse;whiteSpace=wrap;html=1;align=center;fontStyle=4;" vertex="1" parent="1">
          <mxGeometry x="20" y="-265" width="70" height="30" as="geometry" />
        </mxCell>
        <mxCell id="C83mviFjffxOCCcXQTnV-8" style="edgeStyle=orthogonalEdgeStyle;rounded=0;orthogonalLoop=1;jettySize=auto;html=1;entryX=0.5;entryY=1;entryDx=0;entryDy=0;" edge="1" parent="1" source="C83mviFjffxOCCcXQTnV-7" target="C83mviFjffxOCCcXQTnV-3">
          <mxGeometry relative="1" as="geometry" />
        </mxCell>
        <mxCell id="C83mviFjffxOCCcXQTnV-7" value="Nome" style="ellipse;whiteSpace=wrap;html=1;align=center;" vertex="1" parent="1">
          <mxGeometry x="20" y="-210" width="70" height="30" as="geometry" />
        </mxCell>
        <mxCell id="C83mviFjffxOCCcXQTnV-9" value="Diciplina" style="whiteSpace=wrap;html=1;align=center;" vertex="1" parent="1">
          <mxGeometry x="450" y="-270" width="100" height="40" as="geometry" />
        </mxCell>
        <mxCell id="C83mviFjffxOCCcXQTnV-32" style="edgeStyle=orthogonalEdgeStyle;rounded=0;orthogonalLoop=1;jettySize=auto;html=1;" edge="1" parent="1" source="C83mviFjffxOCCcXQTnV-11" target="C83mviFjffxOCCcXQTnV-9">
          <mxGeometry relative="1" as="geometry" />
        </mxCell>
        <mxCell id="C83mviFjffxOCCcXQTnV-11" value="matriculado" style="shape=rhombus;perimeter=rhombusPerimeter;whiteSpace=wrap;html=1;align=center;" vertex="1" parent="1">
          <mxGeometry x="290" y="-280" width="120" height="60" as="geometry" />
        </mxCell>
        <mxCell id="C83mviFjffxOCCcXQTnV-12" value="Nome" style="ellipse;whiteSpace=wrap;html=1;align=center;" vertex="1" parent="1">
          <mxGeometry x="590" y="-210" width="70" height="30" as="geometry" />
        </mxCell>
        <mxCell id="C83mviFjffxOCCcXQTnV-14" style="edgeStyle=orthogonalEdgeStyle;rounded=0;orthogonalLoop=1;jettySize=auto;html=1;entryX=1;entryY=0.5;entryDx=0;entryDy=0;" edge="1" parent="1" source="C83mviFjffxOCCcXQTnV-13" target="C83mviFjffxOCCcXQTnV-9">
          <mxGeometry relative="1" as="geometry" />
        </mxCell>
        <mxCell id="C83mviFjffxOCCcXQTnV-13" value="&lt;u&gt;codigo&lt;/u&gt;" style="ellipse;whiteSpace=wrap;html=1;align=center;" vertex="1" parent="1">
          <mxGeometry x="590" y="-265" width="70" height="30" as="geometry" />
        </mxCell>
        <mxCell id="C83mviFjffxOCCcXQTnV-22" style="edgeStyle=orthogonalEdgeStyle;rounded=0;orthogonalLoop=1;jettySize=auto;html=1;entryX=0.63;entryY=-0.05;entryDx=0;entryDy=0;entryPerimeter=0;" edge="1" parent="1" source="C83mviFjffxOCCcXQTnV-18" target="C83mviFjffxOCCcXQTnV-9">
          <mxGeometry relative="1" as="geometry">
            <mxPoint x="510" y="-305" as="targetPoint" />
          </mxGeometry>
        </mxCell>
        <mxCell id="C83mviFjffxOCCcXQTnV-18" value="horario" style="ellipse;whiteSpace=wrap;html=1;align=center;" vertex="1" parent="1">
          <mxGeometry x="590" y="-320" width="70" height="30" as="geometry" />
        </mxCell>
        <mxCell id="C83mviFjffxOCCcXQTnV-20" style="edgeStyle=orthogonalEdgeStyle;rounded=0;orthogonalLoop=1;jettySize=auto;html=1;entryX=0.25;entryY=1;entryDx=0;entryDy=0;" edge="1" parent="1" source="C83mviFjffxOCCcXQTnV-19" target="C83mviFjffxOCCcXQTnV-9">
          <mxGeometry relative="1" as="geometry" />
        </mxCell>
        <mxCell id="C83mviFjffxOCCcXQTnV-19" value="Sala" style="ellipse;whiteSpace=wrap;html=1;align=center;" vertex="1" parent="1">
          <mxGeometry x="590" y="-150" width="70" height="30" as="geometry" />
        </mxCell>
        <mxCell id="C83mviFjffxOCCcXQTnV-21" style="edgeStyle=orthogonalEdgeStyle;rounded=0;orthogonalLoop=1;jettySize=auto;html=1;entryX=0.84;entryY=1.05;entryDx=0;entryDy=0;entryPerimeter=0;" edge="1" parent="1" source="C83mviFjffxOCCcXQTnV-12" target="C83mviFjffxOCCcXQTnV-9">
          <mxGeometry relative="1" as="geometry" />
        </mxCell>
        <mxCell id="C83mviFjffxOCCcXQTnV-30" style="edgeStyle=orthogonalEdgeStyle;rounded=0;orthogonalLoop=1;jettySize=auto;html=1;entryX=0.5;entryY=0;entryDx=0;entryDy=0;" edge="1" parent="1" source="C83mviFjffxOCCcXQTnV-23" target="C83mviFjffxOCCcXQTnV-29">
          <mxGeometry relative="1" as="geometry" />
        </mxCell>
        <mxCell id="C83mviFjffxOCCcXQTnV-23" value="Professor" style="whiteSpace=wrap;html=1;align=center;" vertex="1" parent="1">
          <mxGeometry x="450" y="-470" width="100" height="40" as="geometry" />
        </mxCell>
        <mxCell id="C83mviFjffxOCCcXQTnV-28" style="edgeStyle=orthogonalEdgeStyle;rounded=0;orthogonalLoop=1;jettySize=auto;html=1;entryX=0;entryY=0.25;entryDx=0;entryDy=0;" edge="1" parent="1" source="C83mviFjffxOCCcXQTnV-25" target="C83mviFjffxOCCcXQTnV-23">
          <mxGeometry relative="1" as="geometry" />
        </mxCell>
        <mxCell id="C83mviFjffxOCCcXQTnV-25" value="Nome" style="ellipse;whiteSpace=wrap;html=1;align=center;" vertex="1" parent="1">
          <mxGeometry x="414" y="-540" width="70" height="30" as="geometry" />
        </mxCell>
        <mxCell id="C83mviFjffxOCCcXQTnV-27" style="edgeStyle=orthogonalEdgeStyle;rounded=0;orthogonalLoop=1;jettySize=auto;html=1;entryX=1;entryY=0.25;entryDx=0;entryDy=0;" edge="1" parent="1" source="C83mviFjffxOCCcXQTnV-26" target="C83mviFjffxOCCcXQTnV-23">
          <mxGeometry relative="1" as="geometry" />
        </mxCell>
        <mxCell id="C83mviFjffxOCCcXQTnV-26" value="&lt;u&gt;CPF&lt;/u&gt;" style="ellipse;whiteSpace=wrap;html=1;align=center;" vertex="1" parent="1">
          <mxGeometry x="510" y="-540" width="70" height="30" as="geometry" />
        </mxCell>
        <mxCell id="C83mviFjffxOCCcXQTnV-31" style="edgeStyle=orthogonalEdgeStyle;rounded=0;orthogonalLoop=1;jettySize=auto;html=1;entryX=0.5;entryY=0;entryDx=0;entryDy=0;" edge="1" parent="1" source="C83mviFjffxOCCcXQTnV-29" target="C83mviFjffxOCCcXQTnV-9">
          <mxGeometry relative="1" as="geometry" />
        </mxCell>
        <mxCell id="C83mviFjffxOCCcXQTnV-29" value="lecionar" style="shape=rhombus;perimeter=rhombusPerimeter;whiteSpace=wrap;html=1;align=center;" vertex="1" parent="1">
          <mxGeometry x="440" y="-390" width="120" height="60" as="geometry" />
        </mxCell>
      </root>
    </mxGraphModel>
  </diagram>
</mxfile>
